HIERARCHY
ROOT Hips
{
  OFFSET -18.3549 93.285 7.80479
  CHANNELS 6 Xposition Yposition Zposition Zrotation Xrotation Yrotation
  JOINT ToSpine
  {
    OFFSET -2.69724 7.43032 -0.144315
    CHANNELS 3 Zrotation Xrotation Yrotation
    JOINT Spine
    {
      OFFSET -0.0310711 10.7595 1.96963
      CHANNELS 3 Zrotation Xrotation Yrotation
      JOINT Spine1
      {
        OFFSET 13.1342 3.43533 0.764692
        CHANNELS 3 Zrotation Xrotation Yrotation
        JOINT Neck
        {
          OFFSET 29.8703 7.82586 -0.130764
          CHANNELS 3 Zrotation Xrotation Yrotation
          JOINT Head
          {
            OFFSET 9.52751 0.295786 -0.907742
            CHANNELS 3 Zrotation Xrotation Yrotation
            End Site
            {
              OFFSET 16.4037 0.713936 2.7358
            }
          }
        }
        JOINT LeftShoulder
        {
          OFFSET 27.5574 4.95586 2.47156
          CHANNELS 3 Zrotation Xrotation Yrotation
          JOINT LeftArm
          {
            OFFSET 1.20734 -0.998971 20.1238
            CHANNELS 3 Zrotation Xrotation Yrotation
            JOINT LeftForeArm
            {
              OFFSET 26.8049 -0.0536703 -0.155908
              CHANNELS 3 Zrotation Xrotation Yrotation
              JOINT LeftHand
              {
                OFFSET 26.6817 0 0.320147
                CHANNELS 3 Zrotation Xrotation Yrotation
                End Site
                {
                  OFFSET 18.6119 0 0.382219
                }
              }
            }
          }
        }
        JOINT RightShoulder
        {
          OFFSET 27.5927 4.71444 -2.65209
          CHANNELS 3 Zrotation Xrotation Yrotation
          JOINT RightArm
          {
            OFFSET 2.83739 -1.17114 -18.7564
            CHANNELS 3 Zrotation Xrotation Yrotation
            JOINT RightForeArm
            {
              OFFSET 28.839 -0.0548439 1.22491
              CHANNELS 3 Zrotation Xrotation Yrotation
              JOINT RightHand
              {
                OFFSET 26.5114 0 -0.101894
                CHANNELS 3 Zrotation Xrotation Yrotation
                End Site
                {
                  OFFSET 18.2168 0 0
                }
              }
            }
          }
        }
      }
    }
  }
  JOINT LeftUpLeg
  {
    OFFSET -4.76168 -1.9167 -10.2353
    CHANNELS 3 Zrotation Xrotation Yrotation
    JOINT LeftLeg
    {
      OFFSET 2.55951 -42.0585 -8.02213
      CHANNELS 3 Zrotation Xrotation Yrotation
      JOINT LeftFoot
      {
        OFFSET 3.16357 -42.5282 -3.95426
        CHANNELS 3 Zrotation Xrotation Yrotation
        JOINT LeftToeBase
        {
          OFFSET 0.346054 -6.02161 12.8035
          CHANNELS 3 Zrotation Xrotation Yrotation
          End Site
          {
            OFFSET 0.134235 -1.35082 5.13018
          }
        }
      }
    }
  }
  JOINT RightUpLeg
  {
    OFFSET -4.94151 -1.41743 10.6446
    CHANNELS 3 Zrotation Xrotation Yrotation
    JOINT RightLeg
    {
      OFFSET -2.56294 -42.0364 -7.94377
      CHANNELS 3 Zrotation Xrotation Yrotation
      JOINT RightFoot
      {
        OFFSET -3.0952 -42.555 -4.02241
        CHANNELS 3 Zrotation Xrotation Yrotation
        JOINT RightToeBase
        {
          OFFSET -0.0828122 -6.13587 12.8035
          CHANNELS 3 Zrotation Xrotation Yrotation
          End Site
          {
            OFFSET -0.131328 -1.35082 5.13018
          }
        }
      }
    }
  }
}
MOTION
Frames:	6
Frame Time:	0.0333333
-7.63485 94.6013 6.60275 69.0593 -44.437 -15.1054 -70.1915 0 88.8779 76.7099 73.3191 9.25712 4.50236 22.6542 2.12159 -129.829 35.9247 157.334 -170.444 78.91 -161.769 0.346778 -15.0687 -24.2623 -56.7868 37.0366 -129.846 22.0203 -8.54831 -109.375 0.420957 0.000576191 0.35866 -1.8239 6.97993 40.7312 -129.085 -16.1071 98.6588 16.325 -3.09539 79.3855 0.58676 0.000330428 0.0646655 -50.3847 2.15384 98.9433 -2.19955 41.0204 -2.39553 3.90787 -17.9377 -1.41083 -0.205663 -3.62158 11.2276 -44.1415 -10.6429 80.4344 1.01811 25.4365 1.07973 -4.75272 4.92792 0.586518 0.560228 -5.54809 0.844351 
-7.55499 94.5765 6.34008 69.2218 -44.4625 -15.1538 -70.1915 0 88.8779 78.2389 73.209 7.53244 4.00759 22.4935 2.15492 -130.658 36.073 158.313 -172.796 78.747 -159.505 0.448023 -14.4127 -24.0852 -56.5145 37.0871 -130.104 22.553 -8.74821 -109.311 0.420957 0.000576191 0.35866 -1.88508 7.15278 40.8968 -128.702 -15.8914 98.9179 16.4371 -3.24719 78.9682 0.58676 0.000330428 0.0646655 -50.3235 1.87242 98.9938 -2.28793 41.2949 -2.89001 3.33496 -17.7838 -1.42024 -0.187657 -4.04881 12.6002 -44.3068 -10.9443 80.3677 1.03211 25.2048 1.15201 -5.40598 4.87423 0.700805 0.443837 -5.38702 1.64625 
-7.45415 94.61 6.12811 69.4439 -44.6702 -15.0861 -70.1915 0 88.8779 80.5765 73.1236 5.1145 3.14264 22.4058 2.21454 -131.196 35.8835 159.23 -173.728 78.3129 -158.05 0.497143 -14.1105 -23.9119 -55.882 37.3359 -130.281 23.4132 -9.1055 -109.276 0.420957 0.000576191 0.35866 -2.01642 7.52938 41.2057 -128.26 -15.54 98.9522 16.4113 -3.44212 78.3246 0.58676 0.000330428 0.0646655 -50.4305 1.74007 99.1508 -2.33401 41.4737 -3.10994 2.84509 -17.6668 -1.42809 -0.168016 -4.24671 13.1791 -44.5859 -11.0851 80.2846 0.989362 24.9585 1.77008 -3.83699 4.62261 0.439985 0.365258 -3.83306 0.68725 
-7.40588 94.5888 6.03405 69.5523 -44.9287 -14.9228 -70.1915 0 88.8779 81.4329 73.106 4.51809 2.93549 22.5087 1.99965 -131.458 35.9401 159.56 -174.076 78.2717 -157.65 0.524432 -13.9261 -23.8705 -55.5286 37.3702 -130.64 23.5836 -9.08744 -109.092 0.420957 0.000576191 0.35866 -1.98605 7.46014 41.0215 -128.127 -15.8073 98.9401 16.6113 -3.64802 77.8112 0.58676 0.000330428 0.0646655 -50.4533 1.83324 99.1346 -2.33586 41.7035 -2.91005 2.59816 -17.7684 -1.44072 -0.213232 -4.16818 13.164 -44.917 -10.8652 80.3154 0.962475 24.4655 1.82535 -3.79957 4.73328 0.431461 0.332224 -3.62826 0.700207 
-7.36399 94.6017 5.97958 69.597 -45.1752 -15.0008 -70.1915 0 88.8779 80.8232 73.1086 5.1586 3.09264 22.6135 1.752 -131.586 35.8259 159.409 -171.737 78.2144 -159.979 0.53564 -13.8922 -23.6787 -55.2896 37.3365 -131.114 23.5253 -8.94648 -108.862 0.420957 0.000576191 0.35866 -1.98995 7.37412 41.3932 -128.015 -15.8181 99.4622 16.5223 -3.79438 77.2845 0.58676 0.000330428 0.0646655 -50.5202 1.77471 99.2319 -2.31873 41.7852 -2.69545 2.38349 -17.6768 -1.44171 -0.0473038 -4.35705 12.8635 -44.9947 -10.8585 80.3563 0.917156 24.382 1.94817 -4.36058 4.83544 0.522378 0.269088 -3.76561 1.3176 
-7.37637 94.5761 5.97722 69.647 -45.6064 -15.1146 -70.1915 0 88.8779 80.5397 73.1813 5.36912 3.04772 22.739 1.63794 -131.386 35.5928 159.314 -170.33 78.0418 -161.301 0.553739 -13.8103 -23.4727 -55.2034 37.1577 -131.341 23.4176 -8.91042 -108.883 0.420957 0.000576191 0.35866 -2.0395 7.4448 41.781 -127.838 -15.7224 99.9218 16.0232 -3.76904 76.9763 0.58676 0.000330428 0.0646655 -50.747 1.84721 99.4984 -2.29565 41.7419 -2.55213 2.35425 -17.7464 -1.44753 -0.104671 -4.26464 12.8661 -45.0126 -10.747 80.3897 0.872806 24.4406 2.62909 -4.20386 4.84212 0.495491 0.392496 -3.75461 0.36101 
